<svg width="2400" height="900" viewBox="0 0 2400 900" fill="none" xmlns="http://www.w3.org/2000/svg">
<path d="M563.673 306.127V271.558C549.923 268.663 535.722 268.663 521.973 271.558V319.412H563.673V306.127Z" fill="#FCC237"/>
<path d="M609.673 369.878L626.288 364.484L642.577 359.199C641.954 352.934 640.742 346.741 638.957 340.702L637.654 336.612C635.554 330.646 632.9 324.889 629.727 319.418L613.365 324.739L596.823 330.277L579.774 335.816L563.666 341.137H521.966L505.858 335.924L488.845 330.277L472.266 324.884L455.941 319.418C452.76 324.949 450.106 330.766 448.013 336.793L446.927 340.232C445.126 346.352 443.914 352.631 443.308 358.982L459.597 364.267L476.175 369.661L493.225 375.199L509.296 380.411L499.342 394.094L488.808 408.573L478.383 422.908L468.284 436.808C472.557 441.552 477.272 445.88 482.365 449.73L485.189 451.794C490.419 455.436 495.982 458.575 501.803 461.169L511.903 447.305L522.11 433.188L532.644 418.709L542.598 405.026L552.553 418.709L563.086 433.188L573.33 447.305L583.719 461.314C589.524 458.724 595.075 455.597 600.298 451.975L603.194 449.839C608.328 445.971 613.08 441.619 617.383 436.844L607.284 422.944L597.04 408.863L586.507 394.384L576.48 380.629L592.552 375.416L609.673 369.878Z" fill="#FCC237"/>
<path d="M174.641 363.275H124V576.771H174.641V363.275Z" fill="#231F20"/>
<path d="M174.677 270.751C157.893 268.046 140.784 268.046 124 270.751L124 321.428H174.677V270.751Z" fill="#231F20"/>
<path d="M341.195 517.777C341.664 512.975 340.235 508.181 337.213 504.42C334.275 501.18 330.702 498.58 326.716 496.782C321.83 494.587 316.769 492.807 311.585 491.461C305.902 489.94 278.319 480.601 271.043 477.633C264.099 475.084 257.618 471.415 251.858 466.774C245.981 462.157 241.197 456.298 237.85 449.616C234.121 441.693 232.216 433.034 232.275 424.277C232.464 413.748 235.249 403.428 240.384 394.233C244.791 385.668 250.857 378.063 258.229 371.863C265.925 365.715 274.811 361.228 284.328 358.687C294.577 355.736 305.191 354.25 315.856 354.271C329.322 354.271 363.601 359.881 386.949 380.225L359.004 408.314C352.759 405.446 346.367 402.909 339.855 400.713C333.748 398.758 327.429 397.543 321.033 397.093C315.399 396.718 309.74 397.169 304.237 398.432C300.402 399.376 296.779 401.033 293.558 403.319C291.035 405.129 289.007 407.544 287.658 410.341C286.473 412.944 285.856 415.77 285.848 418.631C285.657 423.067 287.07 427.423 289.83 430.902C292.786 434.307 296.508 436.962 300.689 438.648C305.395 440.603 325.593 447.263 330.444 448.458C338.046 450.304 345.611 452.476 353.176 455.046C360.532 457.545 367.438 461.211 373.628 465.905C379.867 470.761 384.948 476.943 388.505 484.004C392.822 492.725 394.947 502.366 394.695 512.094C394.81 523.389 392.255 534.551 387.239 544.672C377.682 563.857 348.434 585.792 313.865 585.792C279.296 585.792 254.609 575.295 228.511 555.857L256.021 528.021C265.471 533.038 275.419 537.053 285.703 540.002C294.092 542.523 302.829 543.684 311.585 543.441C335.331 541.414 340.724 525.342 341.122 518.102" fill="#231F20"/>
<path d="M1838.61 384.019C1838.61 384.019 1868.3 363.241 1887.12 357.413C1894.87 355.165 1902.91 354.103 1910.97 354.264C1918.77 354.231 1926.54 355.168 1934.1 357.051C1941.35 358.823 1948.26 361.77 1954.56 365.775C1960.88 369.895 1966.42 375.104 1970.92 381.159C1975.91 387.954 1979.69 395.558 1982.1 403.638C1983.64 408.758 1984.66 414.022 1985.14 419.348C1985.65 425.031 1985.94 431.583 1985.94 439.039V576.591H1935.26V445.446C1935.26 439.401 1935.01 434.189 1934.57 429.845C1934.22 425.955 1933.38 422.124 1932.08 418.443C1928.98 411.39 1923.74 405.498 1917.09 401.611C1910.96 398.252 1904.06 396.555 1897.07 396.688C1885.67 396.567 1874.4 399.043 1864.1 403.927C1854.77 408.456 1846.22 414.43 1838.76 421.628V576.736H1788.12V363.169H1838.61V384.019Z" fill="#231F20"/>
<path d="M1578.21 539.062C1570.11 541.482 1561.75 542.881 1553.31 543.225C1540.44 543.225 1531.86 539.906 1527.57 533.27C1524.73 527.682 1523.48 521.422 1523.95 515.171V404.297H1582.19V363.249H1523.88V314.02C1505.83 317.075 1488.6 323.748 1473.2 333.639V363.249H1440.26C1440.08 363.529 1439.87 363.795 1439.64 364.045V404.297H1473.2V521.325C1472.77 531.931 1474.47 542.515 1478.2 552.455C1482.87 563.22 1491.28 571.935 1501.87 576.997C1512.29 582.318 1532.64 585.142 1544.11 585.504H1548.96C1554.92 585.355 1560.86 584.884 1566.77 584.092C1571.79 583.37 1576.77 582.367 1581.69 581.088C1583.93 580.472 1588.71 579.061 1591.93 577.975L1578.21 539.062Z" fill="#231F20"/>
<path d="M1369.2 465.908C1363.02 461.218 1356.13 457.551 1348.78 455.049C1341.18 452.478 1333.62 450.307 1326.05 448.46C1321.2 447.266 1300.97 440.606 1296.3 438.651C1292.05 436.985 1288.27 434.329 1285.26 430.904C1282.52 427.416 1281.12 423.064 1281.31 418.633C1281.3 415.771 1281.92 412.942 1283.12 410.344C1284.45 407.535 1286.48 405.117 1289.02 403.322C1292.23 401.023 1295.86 399.364 1299.7 398.435C1305.19 397.171 1310.84 396.719 1316.46 397.096C1322.86 397.542 1329.18 398.758 1335.28 400.715C1342.74 403.213 1348.17 405.53 1352.66 407.521L1381.8 379.721C1358.48 359.812 1324.64 354.382 1311.28 354.382C1300.65 354.332 1290.06 355.782 1279.83 358.69C1270.3 361.239 1261.41 365.725 1253.69 371.866C1246.33 378.076 1240.26 385.678 1235.85 394.236C1230.73 403.437 1227.94 413.753 1227.74 424.28C1227.68 433.037 1229.58 441.696 1233.31 449.619C1236.67 456.297 1241.45 462.154 1247.32 466.777C1253.1 471.411 1259.59 475.078 1266.54 477.636C1273.78 480.423 1301.4 489.943 1307.08 491.464C1312.25 492.789 1317.29 494.57 1322.14 496.785C1326.15 498.558 1329.75 501.147 1332.71 504.386C1335.7 508.152 1337.12 512.921 1336.69 517.707C1336.3 524.947 1330.9 541.127 1307.16 543.046C1298.4 543.293 1289.66 542.132 1281.27 539.607C1269.91 536.704 1259.04 532.13 1249.02 526.033L1225.31 556.475C1249.38 575.156 1278.97 585.339 1309.44 585.433C1344.01 585.433 1373.25 563.497 1382.81 544.312C1387.75 534.173 1390.23 523.012 1390.05 511.734C1390.29 502.024 1388.18 492.399 1383.9 483.681C1380.32 476.619 1375.23 470.438 1368.98 465.582" fill="#231F20"/>
<path d="M1709.04 363.231H1658.4V576.727H1709.04V363.231Z" fill="#231F20"/>
<path d="M1683.7 268.723C1675.21 268.716 1666.74 269.393 1658.36 270.75V318.857H1709.04V270.75C1700.66 269.394 1692.18 268.716 1683.7 268.723Z" fill="#231F20"/>
<path d="M1164.83 422.715C1160.36 409.21 1153.17 396.767 1143.69 386.155C1134.37 375.923 1122.9 367.887 1110.1 362.627C1095.87 356.931 1080.65 354.126 1065.32 354.374C1050.25 354.158 1035.28 356.964 1021.31 362.627C1008.53 367.924 997.061 375.954 987.715 386.155C978.173 396.755 970.904 409.197 966.358 422.715C961.234 437.93 958.713 453.9 958.902 469.953C958.705 485.931 961.151 501.831 966.141 517.011C970.62 530.512 977.814 542.954 987.281 553.571C996.6 563.792 1008.07 571.816 1020.87 577.063C1035.1 582.771 1050.32 585.589 1065.65 585.352C1080.73 585.557 1095.69 582.738 1109.67 577.063C1122.44 571.78 1133.91 563.761 1143.26 553.571C1152.79 542.966 1160.06 530.525 1164.61 517.011C1169.71 501.852 1172.23 485.946 1172.07 469.953C1172.29 453.915 1169.84 437.952 1164.83 422.715ZM1115.82 501.59C1113.55 509.864 1109.74 517.637 1104.6 524.504C1100.07 530.408 1094.24 535.18 1087.55 538.44C1080.77 541.667 1073.34 543.301 1065.83 543.218C1058.32 543.276 1050.9 541.643 1044.11 538.44C1037.36 535.186 1031.45 530.417 1026.85 524.504C1021.65 517.652 1017.81 509.877 1015.52 501.59C1012.69 491.288 1011.33 480.636 1011.5 469.953C1011.33 459.271 1012.69 448.619 1015.52 438.316C1017.8 430.015 1021.61 422.21 1026.74 415.295C1031.23 409.31 1037.12 404.513 1043.89 401.322C1050.7 398.183 1058.12 396.6 1065.61 396.689C1073.19 396.603 1080.69 398.185 1087.59 401.322C1094.4 404.489 1100.33 409.289 1104.85 415.295C1110 422.201 1113.8 430.009 1116.07 438.316C1118.9 448.619 1120.26 459.271 1120.09 469.953C1120.17 480.648 1118.73 491.3 1115.82 501.59Z" fill="#231F20"/>
<path d="M897.044 419.351C896.583 414.023 895.563 408.757 894.003 403.641C891.601 395.559 887.817 387.953 882.818 381.162C878.336 375.09 872.793 369.878 866.457 365.778C860.154 361.788 853.248 358.842 846.005 357.055C838.44 355.171 830.67 354.235 822.875 354.267C814.822 354.106 806.791 355.168 799.056 357.416C780.197 363.244 750.515 384.022 750.515 384.022V276.225C732.105 282.066 714.927 291.244 699.838 303.301V576.74H750.515V421.704C757.987 414.509 766.536 408.525 775.853 403.967C786.146 399.099 797.408 396.624 808.794 396.727C815.792 396.598 822.704 398.295 828.847 401.65C835.495 405.537 840.741 411.43 843.833 418.482C845.127 422.165 845.954 425.996 846.295 429.885C846.797 435.069 847.027 440.277 846.982 445.486V576.74H897.659V439.188C897.659 431.731 897.406 425.179 896.863 419.496" fill="#231F20"/>
<path d="M2253.96 363.231H2203.28V383.973C2197.92 374.993 2190.33 367.547 2181.25 362.354C2172.17 357.161 2161.91 354.396 2151.45 354.327C2137.81 353.962 2124.26 356.485 2111.67 361.732C2099.08 366.979 2087.74 374.83 2078.4 384.769C2068.35 395.738 2060.65 408.648 2055.78 422.704C2050.73 437.932 2048.28 453.902 2048.54 469.943C2048.31 485.923 2050.75 501.829 2055.78 517C2060.65 531.046 2068.35 543.944 2078.4 554.899C2090.46 567.677 2113.15 585.342 2151.45 585.342C2161.91 585.279 2172.19 582.513 2181.27 577.313C2190.35 572.112 2197.93 564.653 2203.28 555.659C2203.28 580.998 2208.89 631.168 2148.99 627.693C2127.49 626.587 2106.55 620.503 2087.81 609.92L2068.16 644.706C2091.15 660.245 2117.94 669.241 2145.66 670.732C2201.18 673.375 2227.32 654.299 2241.11 630.553C2253.74 608.834 2253.93 585.378 2253.85 543.062C2253.85 491.589 2253.85 362.978 2253.85 362.978L2253.96 363.231ZM2145.26 542.158L2143.77 541.868H2143.2C2139.64 541.064 2136.19 539.849 2132.92 538.248C2126.15 535.071 2120.26 530.287 2115.76 524.312C2110.64 517.389 2106.84 509.586 2104.54 501.29C2101.71 490.987 2100.36 480.336 2100.52 469.653C2100.35 458.97 2101.71 448.319 2104.54 438.016C2106.82 429.715 2110.63 421.91 2115.76 414.994C2120.31 409.106 2126.22 404.411 2132.99 401.312C2136.28 399.744 2139.72 398.53 2143.27 397.692H2143.85L2145.33 397.438C2169.91 393.348 2191.74 407.538 2203.25 421.365C2203.25 451.59 2203.25 488.367 2203.25 518.412C2191.81 532.239 2170.02 546.429 2145.33 542.375" fill="#231F20"/>
</svg>
